<svg xmlns="http://www.w3.org/2000/svg" viewBox="0 0 720 378" role="img" font-variant-numeric="tabular-nums" aria-labelledby="cc-t cc-d" font-family="system-ui, -apple-system, Segoe UI, sans-serif">
<title id="cc-t">D’où vient l’amélioration du solde des collectivités, 2013-2017</title><desc id="cc-d">Cascade en points de PIB : la baisse des transferts creuse le solde ; la hausse des impôts et la baisse des dépenses, surtout d&#x27;investissement, le remontent jusqu&#x27;à un léger excédent.</desc>
<rect width="720" height="378" fill="#ffffff"/>
<text x="0" y="18" font-size="13" font-weight="600" fill="#0A0A0E">D’où vient l’amélioration du solde des collectivités, 2013-2017</text>
<line x1="356.2" y1="40" x2="356.2" y2="300" stroke="#e1e0d9"/>
<text x="356.2" y="315.0" font-size="11" fill="#898781" text-anchor="middle">−1,0</text>
<line x1="421.5" y1="40" x2="421.5" y2="300" stroke="#e1e0d9"/>
<text x="421.5" y="315.0" font-size="11" fill="#898781" text-anchor="middle">−0,5</text>
<line x1="486.9" y1="40" x2="486.9" y2="300" stroke="#c3c2b7"/>
<text x="486.9" y="315.0" font-size="11" fill="#898781" text-anchor="middle">0,0</text>
<line x1="552.3" y1="40" x2="552.3" y2="300" stroke="#e1e0d9"/>
<text x="552.3" y="315.0" font-size="11" fill="#898781" text-anchor="middle">0,5</text>
<line x1="617.7" y1="40" x2="617.7" y2="300" stroke="#e1e0d9"/>
<text x="617.7" y="315.0" font-size="11" fill="#898781" text-anchor="middle">1,0</text>
<rect x="435.8" y="46.7" width="51.1" height="23.8" fill="#52514e"/>
<text x="320.0" y="62.6" font-size="11" fill="#0A0A0E" text-anchor="end">Solde 2013</text>
<text x="492.9" y="62.6" font-size="11" fill="#52514e" text-anchor="start">−0,39</text>
<rect x="352.6" y="83.8" width="83.2" height="23.8" fill="#eb6834"/>
<text x="320.0" y="99.7" font-size="11" fill="#0A0A0E" text-anchor="end">Transferts reçus des autres administrations publiques</text>
<text x="441.8" y="99.7" font-size="11" fill="#52514e" text-anchor="start">−0,64</text>
<rect x="352.6" y="121.0" width="50.6" height="23.8" fill="#184f95"/>
<text x="320.0" y="136.9" font-size="11" fill="#0A0A0E" text-anchor="end">Impôts locaux et partagés</text>
<text x="409.3" y="136.9" font-size="11" fill="#52514e" text-anchor="start">+0,39</text>
<rect x="387.4" y="158.1" width="15.9" height="23.8" fill="#eb6834"/>
<text x="320.0" y="174.0" font-size="11" fill="#0A0A0E" text-anchor="end">Autres recettes</text>
<text x="409.3" y="174.0" font-size="11" fill="#52514e" text-anchor="start">−0,12</text>
<rect x="387.4" y="195.3" width="65.7" height="23.8" fill="#184f95"/>
<text x="320.0" y="211.1" font-size="11" fill="#0A0A0E" text-anchor="end">Investissement (moins de dépense)</text>
<text x="459.1" y="211.1" font-size="11" fill="#52514e" text-anchor="start">+0,50</text>
<rect x="453.1" y="232.4" width="41.8" height="23.8" fill="#184f95"/>
<text x="320.0" y="248.3" font-size="11" fill="#0A0A0E" text-anchor="end">Autres dépenses (moins de dépense)</text>
<text x="501.0" y="248.3" font-size="11" fill="#52514e" text-anchor="start">+0,32</text>
<rect x="486.9" y="269.5" width="8.1" height="23.8" fill="#52514e"/>
<text x="320.0" y="285.4" font-size="11" fill="#0A0A0E" text-anchor="end">Solde 2017</text>
<text x="501.0" y="285.4" font-size="11" fill="#52514e" text-anchor="start">0,06</text>
<line x1="0" y1="332.0" x2="720" y2="332.0" stroke="#e1e0d9"/>
<text x="0" y="345.0" font-size="9" fill="#52514e">Eurostat gov_10a_main, administrations locales (S1313), France ; points de PIB</text>
<text x="0" y="357.0" font-size="9" fill="#52514e">Lecture comptable : les postes reconstituent exactement la variation du solde ; ils ne disent pas ce qui l&#x27;a décidé.</text>
<text x="0" y="369.0" font-size="9" fill="#898781">Compilation Stéphane Lalut, CC BY 4.0 · stephane-lalut.com/dette-publique-collectivites-locales/</text>
</svg>