<svg xmlns="http://www.w3.org/2000/svg" viewBox="0 0 720 300" width="720" height="300" role="img" aria-labelledby="dl-t dl-d">
<title id="dl-t">Dette publique française en % du PIB, de 1978 à T1 2026</title>
<desc id="dl-d">Elle part de 21,6 % du PIB en 1978, franchit 30 % en 1984, 60 % en 1996, 80 % en 2009, 100 % en 2020, et atteint 117,5 % au T1 2026.</desc>
<rect width="720" height="300" fill="#fff"/>
<line x1="44.0" y1="266.0" x2="704.0" y2="266.0" stroke="#e1e0d9" stroke-width="1"/>
<text x="37.0" y="270.0" font-family="system-ui, -apple-system, Segoe UI, sans-serif" font-size="11" fill="#898781" text-anchor="end">0 %</text>
<line x1="44.0" y1="220.6" x2="704.0" y2="220.6" stroke="#e1e0d9" stroke-width="1"/>
<text x="37.0" y="224.6" font-family="system-ui, -apple-system, Segoe UI, sans-serif" font-size="11" fill="#898781" text-anchor="end">25 %</text>
<line x1="44.0" y1="175.2" x2="704.0" y2="175.2" stroke="#e1e0d9" stroke-width="1"/>
<text x="37.0" y="179.2" font-family="system-ui, -apple-system, Segoe UI, sans-serif" font-size="11" fill="#898781" text-anchor="end">50 %</text>
<line x1="44.0" y1="129.8" x2="704.0" y2="129.8" stroke="#e1e0d9" stroke-width="1"/>
<text x="37.0" y="133.8" font-family="system-ui, -apple-system, Segoe UI, sans-serif" font-size="11" fill="#898781" text-anchor="end">75 %</text>
<line x1="44.0" y1="84.5" x2="704.0" y2="84.5" stroke="#e1e0d9" stroke-width="1"/>
<text x="37.0" y="88.5" font-family="system-ui, -apple-system, Segoe UI, sans-serif" font-size="11" fill="#898781" text-anchor="end">100 %</text>
<line x1="44.0" y1="39.1" x2="704.0" y2="39.1" stroke="#e1e0d9" stroke-width="1"/>
<text x="37.0" y="43.1" font-family="system-ui, -apple-system, Segoe UI, sans-serif" font-size="11" fill="#898781" text-anchor="end">125 %</text>
<path d="M 44.0 266.0 L 44.0 226.8 L 58.0 226.8 L 71.9 227.3 L 85.9 225.0 L 99.9 218.4 L 113.8 215.7 L 127.8 211.2 L 141.8 208.1 L 155.7 207.2 L 169.7 202.8 L 183.7 203.0 L 197.7 201.6 L 211.6 199.2 L 225.6 197.4 L 239.6 190.3 L 253.5 178.5 L 267.5 172.3 L 281.5 161.1 L 295.4 156.0 L 309.4 153.4 L 323.4 153.3 L 337.3 154.5 L 351.3 157.6 L 365.3 158.3 L 379.2 154.7 L 393.2 147.3 L 407.2 144.6 L 421.1 142.2 L 435.1 147.3 L 449.1 147.1 L 463.0 139.3 L 477.0 113.3 L 491.0 109.3 L 505.0 105.0 L 518.9 99.5 L 532.9 94.3 L 546.9 91.4 L 560.8 89.9 L 574.8 87.9 L 588.8 86.6 L 602.7 87.2 L 616.7 87.7 L 630.7 57.4 L 644.6 61.2 L 658.6 63.8 L 672.6 67.2 L 686.5 61.6 L 700.5 56.0 L 704.0 52.7 L 704.0 266.0 Z" fill="#2a78d6" fill-opacity="0.10"/>
<path d="M 44.0 226.8 L 58.0 226.8 L 71.9 227.3 L 85.9 225.0 L 99.9 218.4 L 113.8 215.7 L 127.8 211.2 L 141.8 208.1 L 155.7 207.2 L 169.7 202.8 L 183.7 203.0 L 197.7 201.6 L 211.6 199.2 L 225.6 197.4 L 239.6 190.3 L 253.5 178.5 L 267.5 172.3 L 281.5 161.1 L 295.4 156.0 L 309.4 153.4 L 323.4 153.3 L 337.3 154.5 L 351.3 157.6 L 365.3 158.3 L 379.2 154.7 L 393.2 147.3 L 407.2 144.6 L 421.1 142.2 L 435.1 147.3 L 449.1 147.1 L 463.0 139.3 L 477.0 113.3 L 491.0 109.3 L 505.0 105.0 L 518.9 99.5 L 532.9 94.3 L 546.9 91.4 L 560.8 89.9 L 574.8 87.9 L 588.8 86.6 L 602.7 87.2 L 616.7 87.7 L 630.7 57.4 L 644.6 61.2 L 658.6 63.8 L 672.6 67.2 L 686.5 61.6 L 700.5 56.0 L 704.0 52.7" fill="none" stroke="#2a78d6" stroke-width="2.4" stroke-linejoin="round"/>
<circle cx="44.0" cy="226.8" r="3.4" fill="#2a78d6"/>
<text x="49.0" y="216.8" font-family="system-ui, -apple-system, Segoe UI, sans-serif" font-size="12" fill="#52514e" text-anchor="start">1978 : 21,6 %</text>
<circle cx="127.8" cy="211.2" r="3.4" fill="#2a78d6"/>
<text x="127.8" y="201.2" font-family="system-ui, -apple-system, Segoe UI, sans-serif" font-size="12" fill="#52514e" text-anchor="middle">30 % en 1984</text>
<circle cx="295.4" cy="156.0" r="3.4" fill="#2a78d6"/>
<text x="295.4" y="146.0" font-family="system-ui, -apple-system, Segoe UI, sans-serif" font-size="12" fill="#52514e" text-anchor="middle">60 % en 1996</text>
<circle cx="477.0" cy="113.3" r="3.4" fill="#2a78d6"/>
<text x="477.0" y="103.3" font-family="system-ui, -apple-system, Segoe UI, sans-serif" font-size="12" fill="#52514e" text-anchor="middle">80 % en 2009</text>
<circle cx="630.7" cy="57.4" r="3.4" fill="#2a78d6"/>
<text x="630.7" y="47.4" font-family="system-ui, -apple-system, Segoe UI, sans-serif" font-size="12" fill="#52514e" text-anchor="middle">100 % en 2020</text>
<circle cx="704.0" cy="52.7" r="5" fill="#eb6834"/>
<text x="700.0" y="72.7" font-family="system-ui, -apple-system, Segoe UI, sans-serif" font-size="13" font-weight="700" fill="#52514e" text-anchor="end">117,5 % · T1 2026</text>
<text x="44.0" y="288.0" font-family="system-ui, -apple-system, Segoe UI, sans-serif" font-size="11" fill="#898781">1978</text>
<text x="704.0" y="288.0" font-family="system-ui, -apple-system, Segoe UI, sans-serif" font-size="11" fill="#898781" text-anchor="end">T1 2026</text>
</svg>
