<svg xmlns="http://www.w3.org/2000/svg" viewBox="0 0 720 428" role="img" aria-labelledby="ma-t ma-d" font-family="system-ui, -apple-system, Segoe UI, sans-serif">
<title id="ma-t">La charge d'intérêts face aux grands budgets publics, 1995-2024</title>
<desc id="ma-d">Quatre courbes en milliards d'euros courants, de 1995 à 2024. La santé et l'enseignement progressent régulièrement et restent les plus élevés. La charge d'intérêts baisse jusqu'au début des années 2020, puis remonte et repasse au-dessus du poste « ordre et sécurité ».</desc>
<text x="0" y="22" font-size="13" fill="#52514e">Milliards d'euros courants — la charge d'intérêts comparée à quelques grandes fonctions de dépense publique</text>
<line x1="52.0" y1="346.0" x2="552.0" y2="346.0" stroke="#c3c2b7" stroke-width="1"/>
<text x="45.0" y="350.0" font-size="11" fill="#898781" text-anchor="end">0</text>
<line x1="52.0" y1="292.8" x2="552.0" y2="292.8" stroke="#e1e0d9" stroke-width="1"/>
<text x="45.0" y="296.8" font-size="11" fill="#898781" text-anchor="end">50</text>
<line x1="52.0" y1="239.6" x2="552.0" y2="239.6" stroke="#e1e0d9" stroke-width="1"/>
<text x="45.0" y="243.6" font-size="11" fill="#898781" text-anchor="end">100</text>
<line x1="52.0" y1="186.5" x2="552.0" y2="186.5" stroke="#e1e0d9" stroke-width="1"/>
<text x="45.0" y="190.5" font-size="11" fill="#898781" text-anchor="end">150</text>
<line x1="52.0" y1="133.3" x2="552.0" y2="133.3" stroke="#e1e0d9" stroke-width="1"/>
<text x="45.0" y="137.3" font-size="11" fill="#898781" text-anchor="end">200</text>
<line x1="52.0" y1="80.1" x2="552.0" y2="80.1" stroke="#e1e0d9" stroke-width="1"/>
<text x="45.0" y="84.1" font-size="11" fill="#898781" text-anchor="end">250</text>
<text x="138.2" y="364.0" font-size="11" fill="#898781" text-anchor="middle">2000</text>
<text x="310.6" y="364.0" font-size="11" fill="#898781" text-anchor="middle">2010</text>
<text x="483.0" y="364.0" font-size="11" fill="#898781" text-anchor="middle">2020</text>
<text x="552.0" y="364.0" font-size="11" fill="#898781" text-anchor="middle">2024</text>
<path d="M52.0,256.5 L69.2,251.8 L86.5,252.1 L103.7,248.3 L121.0,244.7 L138.2,237.8 L155.4,232.1 L172.7,223.6 L189.9,215.7 L207.2,208.5 L224.4,199.8 L241.7,194.9 L258.9,189.5 L276.1,185.7 L293.4,178.6 L310.6,173.1 L327.9,167.8 L345.1,164.6 L362.3,160.5 L379.6,155.0 L396.8,153.5 L414.1,149.6 L431.3,143.9 L448.6,140.1 L465.8,135.2 L483.0,124.7 L500.3,96.3 L517.5,89.9 L534.8,80.4 L552.0,68.2" fill="none" stroke="#52514e" stroke-width="1.6" stroke-linejoin="round"/>
<path d="M52.0,271.2 L69.2,269.4 L86.5,268.8 L103.7,266.5 L121.0,262.2 L138.2,258.8 L155.4,255.0 L172.7,249.7 L189.9,247.1 L207.2,246.8 L224.4,243.6 L241.7,239.8 L258.9,238.0 L276.1,233.5 L293.4,230.0 L310.6,228.6 L327.9,229.0 L345.1,227.9 L362.3,226.2 L379.6,224.4 L396.8,222.8 L414.1,223.3 L431.3,219.8 L448.6,217.8 L465.8,215.8 L483.0,218.3 L500.3,210.8 L517.5,203.5 L534.8,195.4 L552.0,187.9" fill="none" stroke="#898781" stroke-width="1.6" stroke-linejoin="round"/>
<path d="M52.0,326.7 L69.2,326.3 L86.5,326.6 L103.7,326.1 L121.0,325.2 L138.2,324.5 L155.4,322.0 L172.7,319.9 L189.9,318.7 L207.2,318.2 L224.4,317.4 L241.7,316.8 L258.9,315.7 L276.1,313.1 L293.4,311.7 L310.6,310.4 L327.9,310.1 L345.1,309.8 L362.3,309.3 L379.6,308.7 L396.8,308.0 L414.1,307.0 L431.3,305.7 L448.6,304.9 L465.8,303.2 L483.0,302.2 L500.3,300.5 L517.5,297.6 L534.8,294.2 L552.0,290.6" fill="none" stroke="#c3c2b7" stroke-width="1.6" stroke-linejoin="round"/>
<path d="M52.0,301.1 L69.2,297.6 L86.5,297.7 L103.7,297.8 L121.0,300.4 L138.2,299.6 L155.4,296.3 L172.7,295.2 L189.9,296.3 L207.2,295.5 L224.4,295.2 L241.7,294.8 L258.9,290.6 L276.1,285.2 L293.4,293.6 L310.6,292.1 L327.9,286.4 L345.1,287.6 L362.3,293.5 L379.6,295.7 L396.8,298.5 L414.1,300.9 L431.3,302.4 L448.6,301.6 L465.8,306.8 L483.0,314.4 L500.3,309.0 L517.5,291.9 L534.8,289.2 L552.0,282.1" fill="none" stroke="#eb6834" stroke-width="2.8" stroke-linecap="round" stroke-linejoin="round"/>
<circle cx="552.0" cy="282.1" r="4.5" fill="#eb6834"/>
<text x="564.0" y="69.2" font-size="11" fill="#52514e"><tspan font-weight="600">Santé</tspan> 261</text>
<text x="564.0" y="82.2" font-size="10" fill="#898781">+26 % depuis 2020</text>
<text x="564.0" y="188.9" font-size="11" fill="#898781"><tspan font-weight="600">Enseignement</tspan> 149</text>
<text x="564.0" y="201.9" font-size="10" fill="#898781">+24 % depuis 2020</text>
<text x="564.0" y="283.1" font-size="12" fill="#eb6834"><tspan font-weight="700">Charge d'intérêts</tspan> 60</text>
<text x="564.0" y="296.1" font-size="10" fill="#898781">+102 % depuis 2020</text>
<text x="564.0" y="313.1" font-size="11" fill="#c3c2b7"><tspan font-weight="600">Ordre et sécurité</tspan> 52</text>
<text x="564.0" y="326.1" font-size="10" fill="#898781">+26 % depuis 2020</text>
<line x1="0" y1="384.0" x2="720" y2="384.0" stroke="#e1e0d9" stroke-width="1"/>
<text x="0" y="397.0" font-family="system-ui, -apple-system, Segoe UI, sans-serif" font-size="9" fill="#52514e">Eurostat : intérêts versés (gov_10a_main, D41PAY) et dépenses des administrations par fonction (gov_10a_exp, COFOG), 1995-2024</text>
<text x="0" y="409.0" font-family="system-ui, -apple-system, Segoe UI, sans-serif" font-size="9" fill="#52514e">Les intérêts sont une nature de dépense, les trois autres des fonctions : ce n'est pas le même découpage, et aucun transfert n'est établi de l'un vers l'autre.</text>
<text x="0" y="421.0" font-family="system-ui, -apple-system, Segoe UI, sans-serif" font-size="9" fill="#898781">Compilation Stéphane Lalut, CC BY 4.0 · stephane-lalut.com/cout-de-la-dette-publique/</text>
</svg>
