<svg xmlns="http://www.w3.org/2000/svg" viewBox="0 0 720 461" role="img" aria-labelledby="qp-red-t qp-red-d" font-family="system-ui, -apple-system, Segoe UI, sans-serif">
<title id="qp-red-t">Prélèvements et transferts publics par dixième de niveau de vie, 2023</title>
<desc id="qp-red-d">Barres par dixième de niveau de vie, en 2023, en milliers d'euros par unité de consommation. Au-dessus de zéro, les transferts reçus (prestations en espèces et transferts non monétaires) : de 27,1 pour le premier dixième à 31,4 pour le dernier. Sous zéro, les prélèvements : de 6,4 à 89,8.</desc>
<text x="0.0" y="22.0" font-size="13" fill="#52514e" text-anchor="start">Prélèvements et transferts publics par dixième de niveau de vie, 2023, en milliers d'euros par UC</text>
<rect x="0" y="37" width="12" height="12" rx="2" fill="#2a78d6"/>
<text x="17.0" y="47.0" font-size="11" fill="#52514e" text-anchor="start">Prestations en espèces</text>
<rect x="180" y="37" width="12" height="12" rx="2" fill="#1baf7a"/>
<text x="197.0" y="47.0" font-size="11" fill="#52514e" text-anchor="start">Transferts non monétaires (services publics…)</text>
<rect x="478" y="37" width="12" height="12" rx="2" fill="#eb6834"/>
<text x="495.0" y="47.0" font-size="11" fill="#52514e" text-anchor="start">Prélèvements (impôts, cotisations)</text>
<line x1="46" y1="360.0" x2="708" y2="360.0" stroke="#e1e0d9" stroke-width="1"/>
<text x="40.0" y="364.0" font-size="11" fill="#898781" text-anchor="end">−100</text>
<line x1="46" y1="319.7" x2="708" y2="319.7" stroke="#e1e0d9" stroke-width="1"/>
<text x="40.0" y="323.7" font-size="11" fill="#898781" text-anchor="end">−80</text>
<line x1="46" y1="279.4" x2="708" y2="279.4" stroke="#e1e0d9" stroke-width="1"/>
<text x="40.0" y="283.4" font-size="11" fill="#898781" text-anchor="end">−60</text>
<line x1="46" y1="239.1" x2="708" y2="239.1" stroke="#e1e0d9" stroke-width="1"/>
<text x="40.0" y="243.1" font-size="11" fill="#898781" text-anchor="end">−40</text>
<line x1="46" y1="198.9" x2="708" y2="198.9" stroke="#e1e0d9" stroke-width="1"/>
<text x="40.0" y="202.9" font-size="11" fill="#898781" text-anchor="end">−20</text>
<line x1="46" y1="158.6" x2="708" y2="158.6" stroke="#c3c2b7" stroke-width="1"/>
<text x="40.0" y="162.6" font-size="11" fill="#898781" text-anchor="end">0</text>
<line x1="46" y1="118.3" x2="708" y2="118.3" stroke="#e1e0d9" stroke-width="1"/>
<text x="40.0" y="122.3" font-size="11" fill="#898781" text-anchor="end">20</text>
<line x1="46" y1="78.0" x2="708" y2="78.0" stroke="#e1e0d9" stroke-width="1"/>
<text x="40.0" y="82.0" font-size="11" fill="#898781" text-anchor="end">40</text>
<rect x="62.1" y="142.5" width="34" height="16.1" fill="#2a78d6"/>
<rect x="62.1" y="102.0" width="34" height="38.5" rx="2" fill="#1baf7a"/>
<rect x="62.1" y="160.6" width="34" height="10.9" rx="2" fill="#eb6834"/>
<text x="79.1" y="97.0" font-size="10" fill="#52514e" text-anchor="middle">27,1</text>
<text x="79.1" y="184.5" font-size="10" fill="#52514e" text-anchor="middle">−6,4</text>
<text x="79.1" y="376.0" font-size="11" fill="#898781" text-anchor="middle">D1</text>
<rect x="128.3" y="137.2" width="34" height="21.4" fill="#2a78d6"/>
<rect x="128.3" y="93.9" width="34" height="41.3" rx="2" fill="#1baf7a"/>
<rect x="128.3" y="160.6" width="34" height="15.7" rx="2" fill="#eb6834"/>
<text x="145.3" y="88.9" font-size="10" fill="#52514e" text-anchor="middle">31,1</text>
<text x="145.3" y="189.3" font-size="10" fill="#52514e" text-anchor="middle">−8,8</text>
<text x="145.3" y="376.0" font-size="11" fill="#898781" text-anchor="middle">D2</text>
<rect x="194.5" y="135.0" width="34" height="23.6" fill="#2a78d6"/>
<rect x="194.5" y="98.0" width="34" height="35.0" rx="2" fill="#1baf7a"/>
<rect x="194.5" y="160.6" width="34" height="22.0" rx="2" fill="#eb6834"/>
<text x="211.5" y="93.0" font-size="10" fill="#52514e" text-anchor="middle">29,1</text>
<text x="211.5" y="195.5" font-size="10" fill="#52514e" text-anchor="middle">−11,9</text>
<text x="211.5" y="376.0" font-size="11" fill="#898781" text-anchor="middle">D3</text>
<rect x="260.7" y="135.4" width="34" height="23.2" fill="#2a78d6"/>
<rect x="260.7" y="98.8" width="34" height="34.6" rx="2" fill="#1baf7a"/>
<rect x="260.7" y="160.6" width="34" height="28.4" rx="2" fill="#eb6834"/>
<text x="277.7" y="93.8" font-size="10" fill="#52514e" text-anchor="middle">28,7</text>
<text x="277.7" y="202.0" font-size="10" fill="#52514e" text-anchor="middle">−15,1</text>
<text x="277.7" y="376.0" font-size="11" fill="#898781" text-anchor="middle">D4</text>
<rect x="326.9" y="134.4" width="34" height="24.2" fill="#2a78d6"/>
<rect x="326.9" y="102.2" width="34" height="30.2" rx="2" fill="#1baf7a"/>
<rect x="326.9" y="160.6" width="34" height="34.7" rx="2" fill="#eb6834"/>
<text x="343.9" y="97.2" font-size="10" fill="#52514e" text-anchor="middle">27,0</text>
<text x="343.9" y="208.2" font-size="10" fill="#52514e" text-anchor="middle">−18,2</text>
<text x="343.9" y="376.0" font-size="11" fill="#898781" text-anchor="middle">D5</text>
<rect x="393.1" y="133.2" width="34" height="25.4" fill="#2a78d6"/>
<rect x="393.1" y="101.0" width="34" height="30.2" rx="2" fill="#1baf7a"/>
<rect x="393.1" y="160.6" width="34" height="41.3" rx="2" fill="#eb6834"/>
<text x="410.1" y="96.0" font-size="10" fill="#52514e" text-anchor="middle">27,6</text>
<text x="410.1" y="214.9" font-size="10" fill="#52514e" text-anchor="middle">−21,5</text>
<text x="410.1" y="376.0" font-size="11" fill="#898781" text-anchor="middle">D6</text>
<rect x="459.3" y="132.8" width="34" height="25.8" fill="#2a78d6"/>
<rect x="459.3" y="101.2" width="34" height="29.6" rx="2" fill="#1baf7a"/>
<rect x="459.3" y="160.6" width="34" height="49.8" rx="2" fill="#eb6834"/>
<text x="476.3" y="96.2" font-size="10" fill="#52514e" text-anchor="middle">27,5</text>
<text x="476.3" y="223.3" font-size="10" fill="#52514e" text-anchor="middle">−25,7</text>
<text x="476.3" y="376.0" font-size="11" fill="#898781" text-anchor="middle">D7</text>
<rect x="525.5" y="131.6" width="34" height="27.0" fill="#2a78d6"/>
<rect x="525.5" y="103.4" width="34" height="26.2" rx="2" fill="#1baf7a"/>
<rect x="525.5" y="160.6" width="34" height="61.9" rx="2" fill="#eb6834"/>
<text x="542.5" y="98.4" font-size="10" fill="#52514e" text-anchor="middle">26,4</text>
<text x="542.5" y="235.4" font-size="10" fill="#52514e" text-anchor="middle">−31,7</text>
<text x="542.5" y="376.0" font-size="11" fill="#898781" text-anchor="middle">D8</text>
<rect x="591.7" y="129.2" width="34" height="29.4" fill="#2a78d6"/>
<rect x="591.7" y="99.8" width="34" height="27.4" rx="2" fill="#1baf7a"/>
<rect x="591.7" y="160.6" width="34" height="80.8" rx="2" fill="#eb6834"/>
<text x="608.7" y="94.8" font-size="10" fill="#52514e" text-anchor="middle">28,2</text>
<text x="608.7" y="254.4" font-size="10" fill="#52514e" text-anchor="middle">−41,1</text>
<text x="608.7" y="376.0" font-size="11" fill="#898781" text-anchor="middle">D9</text>
<rect x="657.9" y="121.3" width="34" height="37.3" fill="#2a78d6"/>
<rect x="657.9" y="93.3" width="34" height="26.0" rx="2" fill="#1baf7a"/>
<rect x="657.9" y="160.6" width="34" height="178.9" rx="2" fill="#eb6834"/>
<text x="674.9" y="88.3" font-size="10" fill="#52514e" text-anchor="middle">31,4</text>
<text x="674.9" y="352.5" font-size="10" fill="#52514e" text-anchor="middle">−89,8</text>
<text x="674.9" y="376.0" font-size="11" fill="#898781" text-anchor="middle">D10</text>
<text x="46.0" y="390.0" font-size="10" fill="#898781" text-anchor="start">← 10 % les plus modestes</text>
<text x="708.0" y="390.0" font-size="10" fill="#898781" text-anchor="end">10 % les plus aisés →</text>
<line x1="0" y1="404.0" x2="720" y2="404.0" stroke="#e1e0d9" stroke-width="1"/>
<text x="0" y="417.0" font-family="system-ui, -apple-system, Segoe UI, sans-serif" font-size="9" fill="#52514e">Insee, comptes nationaux distribués 2023 (Insee Analyses n° 118, 16/04/2026, figure 1c) · France, euros par UC</text>
<text x="0" y="429.0" font-family="system-ui, -apple-system, Segoe UI, sans-serif" font-size="9" fill="#52514e">Répartition avec conventions d'imputation ; ne mesure pas l'incidence spécifique de la dette.</text>
<text x="0" y="441.0" font-family="system-ui, -apple-system, Segoe UI, sans-serif" font-size="9" fill="#898781">Compilation Stéphane Lalut, CC BY 4.0 · stephane-lalut.com/qui-paie-la-dette-publique/</text>
</svg>
