<svg xmlns="http://www.w3.org/2000/svg" viewBox="0 0 720 659" role="img" font-variant-numeric="tabular-nums" aria-labelledby="qp-exp-t qp-exp-d" font-family="system-ui, -apple-system, Segoe UI, sans-serif">
<title id="qp-exp-t">The same €10 billion adjustment: who would bear it, depending on the decision taken?</title>
<desc id="qp-exp-d">Two panels. A: for a 10 billion euro adjustment allocated pro rata to each item, the share of net disposable income this amount would represent for each standard-of-living decile, in 2023. A cut in education spending weighs 2.75% of the income of the first decile and 0.21% of the last; a rise in taxes on income and wealth, 1.14% of the last; pensions stay between 0.43 and 0.78%. B: the ratio of the heaviest to the lightest decision for the same group, base 1. It is ×5.5 in the last decile and at least as much in the first, and falls to ×1.4 in D7-D8: that is where the lever chosen differentiates households least.</desc>
<text x="0.0" y="22.0" font-size="13" fill="#52514e" text-anchor="start">The same €10 billion adjustment: who would bear it, depending on the decision taken?</text>
<text x="0.0" y="48.0" font-size="12" fill="#2b2a28" text-anchor="start" font-weight="600">A · Amount allocated to the group, as a % of its net disposable income</text>
<text x="0.0" y="64.0" font-size="11" fill="#898781" text-anchor="start">Adjustment allocated pro rata to the existing amounts of each item · standard-of-living deciles, 2023</text>
<text x="0.0" y="78.0" font-size="11" fill="#898781" text-anchor="start">Decisions compared: taxes on income and wealth · retirement pensions · education spending</text>
<line x1="46" y1="300.0" x2="544.0" y2="300.0" stroke="#c3c2b7" stroke-width="1"/>
<text x="40.0" y="304.0" font-size="11" fill="#898781" text-anchor="end">0%</text>
<line x1="46" y1="234.7" x2="544.0" y2="234.7" stroke="#e1e0d9" stroke-width="1"/>
<text x="40.0" y="238.7" font-size="11" fill="#898781" text-anchor="end">1%</text>
<line x1="46" y1="169.3" x2="544.0" y2="169.3" stroke="#e1e0d9" stroke-width="1"/>
<text x="40.0" y="173.3" font-size="11" fill="#898781" text-anchor="end">2%</text>
<line x1="46" y1="104.0" x2="544.0" y2="104.0" stroke="#e1e0d9" stroke-width="1"/>
<text x="40.0" y="108.0" font-size="11" fill="#898781" text-anchor="end">3%</text>
<polyline points="70.9,120.4 120.7,210.7 170.5,231.0 220.3,248.2 270.1,255.3 319.9,262.3 369.7,268.0 419.5,271.9 469.3,277.1 519.1,286.4" fill="none" stroke="#898781" stroke-width="2.2" stroke-linejoin="round" stroke-linecap="round"/>
<circle cx="70.9" cy="120.4" r="3.4" fill="#898781"/>
<circle cx="120.7" cy="210.7" r="3.4" fill="#898781"/>
<circle cx="170.5" cy="231.0" r="3.4" fill="#898781"/>
<circle cx="220.3" cy="248.2" r="3.4" fill="#898781"/>
<circle cx="270.1" cy="255.3" r="3.4" fill="#898781"/>
<circle cx="319.9" cy="262.3" r="3.4" fill="#898781"/>
<circle cx="369.7" cy="268.0" r="3.4" fill="#898781"/>
<circle cx="419.5" cy="271.9" r="3.4" fill="#898781"/>
<circle cx="469.3" cy="277.1" r="3.4" fill="#898781"/>
<circle cx="519.1" cy="286.4" r="3.4" fill="#898781"/>
<polyline points="70.9,267.2 120.7,257.0 170.5,249.0 220.3,253.1 270.1,254.3 319.9,254.0 369.7,257.7 419.5,260.3 469.3,262.9 519.1,272.0" fill="none" stroke="#184f95" stroke-width="2.2" stroke-linejoin="round" stroke-linecap="round"/>
<circle cx="70.9" cy="267.2" r="3.4" fill="#184f95"/>
<circle cx="120.7" cy="257.0" r="3.4" fill="#184f95"/>
<circle cx="170.5" cy="249.0" r="3.4" fill="#184f95"/>
<circle cx="220.3" cy="253.1" r="3.4" fill="#184f95"/>
<circle cx="270.1" cy="254.3" r="3.4" fill="#184f95"/>
<circle cx="319.9" cy="254.0" r="3.4" fill="#184f95"/>
<circle cx="369.7" cy="257.7" r="3.4" fill="#184f95"/>
<circle cx="419.5" cy="260.3" r="3.4" fill="#184f95"/>
<circle cx="469.3" cy="262.9" r="3.4" fill="#184f95"/>
<circle cx="519.1" cy="272.0" r="3.4" fill="#184f95"/>
<polyline points="120.7,288.4 170.5,284.3 220.3,280.2 270.1,277.1 319.9,273.5 369.7,269.8 419.5,264.3 469.3,255.9 519.1,225.3" fill="none" stroke="#eb6834" stroke-width="2.2" stroke-linejoin="round" stroke-linecap="round"/>
<circle cx="120.7" cy="288.4" r="3.4" fill="#eb6834"/>
<circle cx="170.5" cy="284.3" r="3.4" fill="#eb6834"/>
<circle cx="220.3" cy="280.2" r="3.4" fill="#eb6834"/>
<circle cx="270.1" cy="277.1" r="3.4" fill="#eb6834"/>
<circle cx="319.9" cy="273.5" r="3.4" fill="#eb6834"/>
<circle cx="369.7" cy="269.8" r="3.4" fill="#eb6834"/>
<circle cx="419.5" cy="264.3" r="3.4" fill="#eb6834"/>
<circle cx="469.3" cy="255.9" r="3.4" fill="#eb6834"/>
<circle cx="519.1" cy="225.3" r="3.4" fill="#eb6834"/>
<circle cx="70.9" cy="279.7" r="3.4" fill="none" stroke="#eb6834" stroke-width="1.6" stroke-dasharray="2 2"/>
<text x="79.9" y="283.7" font-size="10" fill="#898781" text-anchor="start">point excluded</text>
<text x="70.9" y="110.4" font-size="15" fill="#2b2a28" text-anchor="middle" font-weight="600">2.75%</text>
<text x="558.0" y="207.3" font-size="11" fill="#eb6834" text-anchor="start" font-weight="600">Taxes</text>
<text x="558.0" y="220.3" font-size="10" fill="#898781" text-anchor="start">1.14% in D10</text>
<text x="558.0" y="254.0" font-size="11" fill="#184f95" text-anchor="start" font-weight="600">Pensions</text>
<text x="558.0" y="267.0" font-size="10" fill="#898781" text-anchor="start">0.43% in D10</text>
<text x="558.0" y="288.0" font-size="11" fill="#898781" text-anchor="start" font-weight="600">Education</text>
<text x="558.0" y="301.0" font-size="10" fill="#898781" text-anchor="start">0.21% in D10</text>
<text x="70.9" y="316.0" font-size="11" fill="#898781" text-anchor="middle">D1</text>
<text x="120.7" y="316.0" font-size="11" fill="#898781" text-anchor="middle">D2</text>
<text x="170.5" y="316.0" font-size="11" fill="#898781" text-anchor="middle">D3</text>
<text x="220.3" y="316.0" font-size="11" fill="#898781" text-anchor="middle">D4</text>
<text x="270.1" y="316.0" font-size="11" fill="#898781" text-anchor="middle">D5</text>
<text x="319.9" y="316.0" font-size="11" fill="#898781" text-anchor="middle">D6</text>
<text x="369.7" y="316.0" font-size="11" fill="#898781" text-anchor="middle">D7</text>
<text x="419.5" y="316.0" font-size="11" fill="#898781" text-anchor="middle">D8</text>
<text x="469.3" y="316.0" font-size="11" fill="#898781" text-anchor="middle">D9</text>
<text x="519.1" y="316.0" font-size="11" fill="#898781" text-anchor="middle">D10</text>
<text x="46.0" y="332.0" font-size="10" fill="#898781" text-anchor="start">← least well-off 10%</text>
<text x="544.0" y="332.0" font-size="10" fill="#898781" text-anchor="end">best-off 10% →</text>
<text x="0.0" y="364.0" font-size="12" fill="#2b2a28" text-anchor="start" font-weight="600">B · How much the choice of decision changes what the same group bears</text>
<text x="0.0" y="380.0" font-size="11" fill="#898781" text-anchor="start">Ratio of the heaviest to the lightest decision for this group · base 1: no gap</text>
<rect x="245.2" y="398.0" width="249.0" height="106.0" fill="#f0efe9"/>
<line x1="46" y1="504.0" x2="544.0" y2="504.0" stroke="#c3c2b7" stroke-width="1"/>
<text x="40.0" y="508.0" font-size="11" fill="#898781" text-anchor="end">×1</text>
<line x1="46" y1="489.7" x2="544.0" y2="489.7" stroke="#e1e0d9" stroke-width="1"/>
<text x="40.0" y="493.7" font-size="11" fill="#898781" text-anchor="end">×2</text>
<line x1="46" y1="461.1" x2="544.0" y2="461.1" stroke="#e1e0d9" stroke-width="1"/>
<text x="40.0" y="465.1" font-size="11" fill="#898781" text-anchor="end">×4</text>
<line x1="46" y1="432.6" x2="544.0" y2="432.6" stroke="#e1e0d9" stroke-width="1"/>
<text x="40.0" y="436.6" font-size="11" fill="#898781" text-anchor="end">×6</text>
<line x1="46" y1="404.0" x2="544.0" y2="404.0" stroke="#e1e0d9" stroke-width="1"/>
<text x="40.0" y="408.0" font-size="11" fill="#898781" text-anchor="end">×8</text>
<rect x="53.9" y="440.0" width="34" height="64.0" rx="2" fill="#898781"/>
<text x="70.9" y="433.0" font-size="10" fill="#52514e" text-anchor="middle">≥ ×5.5</text>
<text x="70.9" y="520.0" font-size="11" fill="#898781" text-anchor="middle">D1</text>
<rect x="103.7" y="408.3" width="34" height="95.7" rx="2" fill="#898781"/>
<text x="120.7" y="401.3" font-size="10" fill="#52514e" text-anchor="middle">×7.7</text>
<text x="120.7" y="520.0" font-size="11" fill="#898781" text-anchor="middle">D2</text>
<rect x="153.5" y="455.4" width="34" height="48.6" rx="2" fill="#898781"/>
<text x="170.5" y="448.4" font-size="10" fill="#52514e" text-anchor="middle">×4.4</text>
<text x="170.5" y="520.0" font-size="11" fill="#898781" text-anchor="middle">D3</text>
<rect x="203.3" y="480.9" width="34" height="23.1" rx="2" fill="#898781"/>
<text x="220.3" y="473.9" font-size="10" fill="#52514e" text-anchor="middle">×2.6</text>
<text x="220.3" y="520.0" font-size="11" fill="#898781" text-anchor="middle">D4</text>
<rect x="253.1" y="489.8" width="34" height="14.2" rx="2" fill="#898781"/>
<text x="270.1" y="482.8" font-size="10" fill="#52514e" text-anchor="middle">×2.0</text>
<text x="270.1" y="520.0" font-size="11" fill="#898781" text-anchor="middle">D5</text>
<rect x="302.9" y="493.5" width="34" height="10.5" rx="2" fill="#898781"/>
<text x="319.9" y="486.5" font-size="10" fill="#52514e" text-anchor="middle">×1.7</text>
<text x="319.9" y="520.0" font-size="11" fill="#898781" text-anchor="middle">D6</text>
<rect x="352.7" y="498.3" width="34" height="5.7" rx="2" fill="#898781"/>
<text x="369.7" y="491.3" font-size="12" fill="#2b2a28" text-anchor="middle" font-weight="600">×1.4</text>
<text x="369.7" y="520.0" font-size="11" fill="#2b2a28" text-anchor="middle" font-weight="600">D7</text>
<rect x="402.5" y="498.1" width="34" height="5.9" rx="2" fill="#898781"/>
<text x="419.5" y="491.1" font-size="10" fill="#52514e" text-anchor="middle">×1.4</text>
<text x="419.5" y="520.0" font-size="11" fill="#898781" text-anchor="middle">D8</text>
<rect x="452.3" y="490.8" width="34" height="13.2" rx="2" fill="#898781"/>
<text x="469.3" y="483.8" font-size="10" fill="#52514e" text-anchor="middle">×1.9</text>
<text x="469.3" y="520.0" font-size="11" fill="#898781" text-anchor="middle">D9</text>
<rect x="502.1" y="439.7" width="34" height="64.3" rx="2" fill="#898781"/>
<text x="519.1" y="432.7" font-size="10" fill="#52514e" text-anchor="middle">×5.5</text>
<text x="519.1" y="520.0" font-size="11" fill="#898781" text-anchor="middle">D10</text>
<text x="369.7" y="538.0" font-size="11" fill="#52514e" text-anchor="middle">D7-D8: minimum dispersion across the three levers</text>
<text x="369.7" y="552.0" font-size="11" fill="#52514e" text-anchor="middle">where the lever chosen differentiates households least</text>
<line x1="0" y1="566.0" x2="720" y2="566.0" stroke="#e1e0d9" stroke-width="1"/>
<text x="0" y="579.0" font-family="system-ui, -apple-system, Segoe UI, sans-serif" font-size="9" fill="#52514e">Insee, distributional national accounts, table CND.101 (2023 vintage, base 2020) · France, standard-of-living deciles</text>
<text x="0" y="591.0" font-family="system-ui, -apple-system, Segoe UI, sans-serif" font-size="9" fill="#52514e">An exposure profile, not a simulation: no behaviour, no feedback effect. A cut in a valued public service is not a loss of cash income.</text>
<text x="0" y="603.0" font-family="system-ui, -apple-system, Segoe UI, sans-serif" font-size="9" fill="#52514e">D1 tax point excluded: income tax of the first twentieth makes up 60% of the item while the neighbouring twentieths are at zero, and varies from 1 to 2.9 by vintage.</text>
<text x="0" y="615.0" font-family="system-ui, -apple-system, Segoe UI, sans-serif" font-size="9" fill="#52514e">D1 carries “≥”: the gap there is computed on the two levers kept — a lower bound, which a third point could only raise.</text>
<text x="0" y="627.0" font-family="system-ui, -apple-system, Segoe UI, sans-serif" font-size="9" fill="#52514e">The trough lies in D7 or D8 in all four vintages 2020-2023, and in the same zone with three measures of dispersion.</text>
<text x="0" y="639.0" font-family="system-ui, -apple-system, Segoe UI, sans-serif" font-size="9" fill="#898781">Compiled by Stéphane Lalut, CC BY 4.0 · stephane-lalut.com/en/who-really-pays-public-debt/</text>
</svg>
