<?xml version="1.0" encoding="UTF-8" standalone="no"?>
<!-- Generator: Adobe Illustrator 23.0.1, SVG Export Plug-In . SVG Version: 6.00 Build 0)  -->

<svg
  xmlns:dc="http://purl.org/dc/elements/1.1/"
  xmlns:cc="http://creativecommons.org/ns#"
  xmlns:rdf="http://www.w3.org/1999/02/22-rdf-syntax-ns#"
  xmlns:svg="http://www.w3.org/2000/svg"
  xmlns="http://www.w3.org/2000/svg"
  xmlns:sodipodi="http://sodipodi.sourceforge.net/DTD/sodipodi-0.dtd"
  xmlns:inkscape="http://www.inkscape.org/namespaces/inkscape"
  version="1.1"
  id="Calque_1"
  x="0px"
  y="0px"
  viewBox="0 0 260.79999 130.39999"
  xml:space="preserve"
  sodipodi:docname="AE2019_VECTORISE.svg"
  width="260.79999"
  height="130.39999"
  inkscape:version="0.92.3 (2405546, 2018-03-11)"><metadata
   id="metadata61"><rdf:RDF><cc:Work
       rdf:about=""><dc:format>image/svg+xml</dc:format><dc:type
  rdf:resource="http://purl.org/dc/dcmitype/StillImage" /><dc:title /></cc:Work></rdf:RDF></metadata><defs
  id="defs59" /><sodipodi:namedview
  pagecolor="#ffffff"
  bordercolor="#666666"
  borderopacity="1"
  objecttolerance="10"
  gridtolerance="10"
  guidetolerance="10"
  inkscape:pageopacity="0"
  inkscape:pageshadow="2"
  inkscape:window-width="1920"
  inkscape:window-height="996"
  id="namedview57"
  showgrid="false"
  fit-margin-top="0"
  fit-margin-left="0"
  fit-margin-right="0"
  fit-margin-bottom="0"
  inkscape:zoom="1.7449172"
  inkscape:cx="338.01154"
  inkscape:cy="22.625261"
  inkscape:window-x="1600"
  inkscape:window-y="30"
  inkscape:window-maximized="1"
  inkscape:current-layer="Calque_1" />
  <style
    type="text/css"
    id="style2">
	.st0{fill:#E73331;}
	.st1{fill:#FFFFFF;}
</style>
  <rect
    x="0"
    y="0"
    class="st0"
    width="260.79999"
    height="130.39999"
    id="rect4"
    style="fill:#ff003c;fill-opacity:1" />
  <g
    id="g30"
    transform="translate(-167.2,-276.89999)">
	<path
    class="st1"
    d="m 201.9,337 -1.4,-7.8 c 0,-0.1 -0.2,-0.3 -0.3,-0.3 h -10.3 c -0.1,0 -0.3,0.1 -0.3,0.3 l -1.5,7.8 c -0.1,0.4 -0.3,0.6 -0.6,0.6 h -2.9 c -0.4,0 -0.6,-0.3 -0.5,-0.7 l 8.6,-42.8 c 0.1,-0.4 0.3,-0.6 0.6,-0.6 h 3.4 c 0.3,0 0.6,0.2 0.6,0.6 l 8.6,42.8 c 0.1,0.4 -0.1,0.7 -0.5,0.7 h -2.9 c -0.3,0 -0.6,-0.2 -0.6,-0.6 z m -11.3,-11.7 h 8.9 c 0.1,0 0.2,-0.1 0.2,-0.3 l -4.5,-24.3 c -0.1,-0.3 -0.2,-0.3 -0.2,0 l -4.5,24.3 c -0.1,0.2 0,0.3 0.1,0.3 z"
    id="path6"
    inkscape:connector-curvature="0"
    style="fill:#ffffff" />
    <path
      class="st1"
      d="m 211.1,337 v -42.8 c 0,-0.4 0.2,-0.6 0.6,-0.6 h 2.9 c 0.3,0 0.6,0.3 0.6,0.6 V 337 c 0,0.4 -0.2,0.6 -0.6,0.6 h -2.9 c -0.3,0 -0.6,-0.3 -0.6,-0.6 z"
      id="path8"
      inkscape:connector-curvature="0"
      style="fill:#ffffff" />
    <path
      class="st1"
      d="M 231.3,309 H 227 c -0.1,0 -0.2,0.1 -0.2,0.3 v 19.3 c 0,4 1.3,5.1 3.7,5 h 0.6 c 0.3,0 0.6,0.3 0.6,0.6 v 2.7 c 0,0.4 -0.2,0.6 -0.6,0.6 h -1.4 c -4,0 -6.8,-1.3 -6.8,-7.7 v -20.6 c 0,-0.1 -0.1,-0.3 -0.2,-0.3 h -2.2 c -0.3,0 -0.6,-0.3 -0.6,-0.6 v -2.1 c 0,-0.4 0.2,-0.6 0.6,-0.6 h 2.2 c 0.1,0 0.2,-0.1 0.2,-0.3 v -7.1 c 0,-0.4 0.2,-0.6 0.6,-0.6 h 2.8 c 0.3,0 0.6,0.3 0.6,0.6 v 7.1 c 0,0.1 0.1,0.3 0.2,0.3 h 4.3 c 0.3,0 0.6,0.3 0.6,0.6 v 2.1 c -0.1,0.5 -0.3,0.7 -0.7,0.7 z"
      id="path10"
      inkscape:connector-curvature="0"
      style="fill:#ffffff" />
    <path
      class="st1"
      d="m 253.5,323.4 h -12.9 c -0.1,0 -0.2,0.1 -0.2,0.3 v 4.6 c 0,3.5 2,6 4.8,6 2.5,0 4.3,-1.8 4.8,-4.4 0.1,-0.4 0.3,-0.6 0.6,-0.6 l 2.8,0.1 c 0.3,0 0.6,0.3 0.5,0.7 -0.6,4.9 -3.7,8.1 -8.7,8.1 -5.4,0 -8.8,-3.8 -8.8,-9.6 V 315 c 0,-5.7 3.5,-9.6 8.8,-9.6 5.5,0 8.9,4 8.9,9.6 v 7.9 c 0,0.2 -0.2,0.5 -0.6,0.5 z m -13.1,-8.2 v 4.2 c 0,0.1 0.1,0.3 0.2,0.3 h 9.3 c 0.1,0 0.2,-0.1 0.2,-0.3 v -4.2 c 0,-3.6 -2,-6 -4.9,-6 -2.8,-0.1 -4.8,2.4 -4.8,6 z"
      id="path12"
      inkscape:connector-curvature="0"
      style="fill:#ffffff" />
    <path
      class="st1"
      d="m 272.3,306.1 c 0.3,0.2 0.3,0.5 0.3,0.8 l -0.6,3.2 c -0.1,0.4 -0.3,0.5 -0.7,0.4 -0.6,-0.3 -1.5,-0.4 -2.4,-0.3 -2.7,0.2 -4.6,3.5 -4.6,7.8 v 19 c 0,0.4 -0.2,0.6 -0.6,0.6 h -2.9 c -0.3,0 -0.6,-0.3 -0.6,-0.6 v -30.6 c 0,-0.4 0.2,-0.6 0.6,-0.6 h 2.9 c 0.3,0 0.6,0.3 0.6,0.6 v 3.8 c 0,0.3 0.2,0.3 0.3,0.1 1,-2.8 2.7,-4.8 5.4,-4.8 0.9,-0.1 1.7,0.2 2.3,0.6 z"
      id="path14"
      inkscape:connector-curvature="0"
      style="fill:#ffffff" />
    <path
      class="st1"
      d="M 294.3,315.3 V 337 c 0,0.4 -0.2,0.6 -0.6,0.6 h -2.9 c -0.3,0 -0.6,-0.3 -0.6,-0.6 v -21.3 c 0,-4.1 -1.6,-6.5 -4.5,-6.5 -3,0 -4.9,2.6 -4.9,6.8 v 21 c 0,0.4 -0.2,0.6 -0.6,0.6 h -2.9 c -0.3,0 -0.6,-0.3 -0.6,-0.6 v -30.6 c 0,-0.4 0.2,-0.6 0.6,-0.6 h 2.9 c 0.3,0 0.6,0.3 0.6,0.6 v 2.1 c 0,0.2 0.2,0.3 0.3,0.1 1.5,-2.3 3.6,-3.2 5.9,-3.2 4.6,-0.1 7.3,3.6 7.3,9.9 z"
      id="path16"
      inkscape:connector-curvature="0"
      style="fill:#ffffff" />
    <path
      class="st1"
      d="M 317.9,315.7 V 337 c 0,0.4 -0.2,0.6 -0.6,0.6 h -2.9 c -0.3,0 -0.6,-0.3 -0.6,-0.6 v -1.8 c 0,-0.2 -0.1,-0.3 -0.3,-0.1 -1.5,2.1 -3.7,3 -6.2,3 -3.2,0 -7.7,-1.5 -7.7,-9 0,-7.6 4.5,-10.3 10.1,-10.3 h 3.9 c 0.1,0 0.2,-0.1 0.2,-0.3 V 316 c 0,-4.2 -1.8,-6.9 -4.8,-6.9 -2.3,0 -4.1,1.8 -4.4,4.5 -0.1,0.4 -0.3,0.6 -0.6,0.6 l -3.1,-0.1 c -0.3,0 -0.6,-0.3 -0.5,-0.6 0.4,-5 4,-8.3 8.7,-8.3 5.4,0 8.8,4.2 8.8,10.5 z m -4,12.2 v -5.3 c 0,-0.1 -0.1,-0.3 -0.2,-0.3 h -4 c -3.5,0 -5.9,2 -5.9,6.4 0,3.8 1.9,5.5 4.4,5.5 2.8,0 5.7,-2.1 5.7,-6.3 z"
      id="path18"
      inkscape:connector-curvature="0"
      style="fill:#ffffff" />
    <path
      class="st1"
      d="m 333.8,309 h -4.3 c -0.1,0 -0.2,0.1 -0.2,0.3 v 19.3 c 0,4 1.3,5.1 3.7,5 h 0.6 c 0.3,0 0.6,0.3 0.6,0.6 v 2.7 c 0,0.4 -0.2,0.6 -0.6,0.6 h -1.4 c -4,0 -6.8,-1.3 -6.8,-7.7 v -20.6 c 0,-0.1 -0.1,-0.3 -0.2,-0.3 H 323 c -0.3,0 -0.6,-0.3 -0.6,-0.6 v -2.1 c 0,-0.4 0.2,-0.6 0.6,-0.6 h 2.2 c 0.1,0 0.2,-0.1 0.2,-0.3 v -7.1 c 0,-0.4 0.2,-0.6 0.6,-0.6 h 2.8 c 0.3,0 0.6,0.3 0.6,0.6 v 7.1 c 0,0.1 0.1,0.3 0.2,0.3 h 4.3 c 0.3,0 0.6,0.3 0.6,0.6 v 2.1 c -0.2,0.5 -0.4,0.7 -0.7,0.7 z"
      id="path20"
      inkscape:connector-curvature="0"
      style="fill:#ffffff" />
    <path
      class="st1"
      d="m 338.9,296.7 c 0,-1.8 1.2,-3.2 2.8,-3.2 1.6,0 2.7,1.4 2.7,3.2 0,2 -1.1,3.3 -2.7,3.3 -1.6,0 -2.8,-1.3 -2.8,-3.3 z m 0.8,40.3 v -30.6 c 0,-0.4 0.2,-0.6 0.6,-0.6 h 2.9 c 0.3,0 0.6,0.3 0.6,0.6 V 337 c 0,0.4 -0.2,0.6 -0.6,0.6 h -2.9 c -0.3,0 -0.6,-0.3 -0.6,-0.6 z"
      id="path22"
      inkscape:connector-curvature="0"
      style="fill:#ffffff" />
    <path
      class="st1"
      d="m 355.9,337 -7,-30.6 c -0.1,-0.4 0.1,-0.7 0.5,-0.7 h 3.3 c 0.3,0 0.6,0.2 0.6,0.6 l 4.9,24.4 c 0.1,0.3 0.2,0.3 0.2,0 l 4.8,-24.4 c 0.1,-0.4 0.3,-0.6 0.6,-0.6 l 3.3,0.1 c 0.4,0 0.6,0.3 0.5,0.7 l -7,30.6 c -0.1,0.4 -0.3,0.6 -0.6,0.6 h -3.4 c -0.4,-0.1 -0.6,-0.3 -0.7,-0.7 z"
      id="path24"
      inkscape:connector-curvature="0"
      style="fill:#ffffff" />
    <path
      class="st1"
      d="m 388.7,323.4 h -12.9 c -0.1,0 -0.2,0.1 -0.2,0.3 v 4.6 c 0,3.5 2,6 4.8,6 2.5,0 4.3,-1.8 4.8,-4.4 0.1,-0.4 0.3,-0.6 0.6,-0.6 l 2.8,0.1 c 0.3,0 0.6,0.3 0.5,0.7 -0.6,4.9 -3.7,8.1 -8.7,8.1 -5.4,0 -8.8,-3.8 -8.8,-9.6 V 315 c 0,-5.7 3.5,-9.6 8.8,-9.6 5.5,0 8.9,4 8.9,9.6 v 7.9 c 0,0.2 -0.2,0.5 -0.6,0.5 z m -13.1,-8.2 v 4.2 c 0,0.1 0.1,0.3 0.2,0.3 h 9.3 c 0.1,0 0.2,-0.1 0.2,-0.3 v -4.2 c 0,-3.6 -2,-6 -4.9,-6 -2.9,-0.1 -4.8,2.4 -4.8,6 z"
      id="path26"
      inkscape:connector-curvature="0"
      style="fill:#ffffff" />
    <path
      class="st1"
      d="m 394.2,329.7 v -0.4 c 0,-0.4 0.2,-0.6 0.6,-0.6 h 2.7 c 0.3,0 0.6,0.2 0.6,0.5 v 0.5 c 0,2.6 1.9,4.8 4.8,4.8 2.8,0 4.5,-2.1 4.5,-4.9 0,-3.5 -2.9,-4.7 -5.8,-6.1 -3.2,-1.4 -7.2,-3.3 -7.2,-9.3 0,-5.4 3.3,-8.7 8.3,-8.7 5.2,0 8.4,3.5 8.4,8.8 v 0.2 c 0,0.4 -0.2,0.6 -0.6,0.6 h -2.6 c -0.3,0 -0.6,-0.2 -0.6,-0.5 V 314 c 0,-2.8 -1.8,-4.9 -4.6,-4.9 -2.8,0 -4.5,2.2 -4.5,4.9 0,3.3 2.6,4.5 5.6,5.9 3.3,1.6 7.6,3.6 7.6,9.5 0,5.2 -3.3,8.6 -8.6,8.6 -5.3,0 -8.6,-3.4 -8.6,-8.3 z"
      id="path28"
      inkscape:connector-curvature="0"
      style="fill:#ffffff" />
</g>
  <g
    id="g54"
    transform="translate(-167.2,-276.89999)">
	<path
    class="st1"
    d="m 201.2,351.2 h -10.5 c -0.1,0 -0.2,0.1 -0.2,0.3 v 10.2 c 0,0.2 0.1,0.3 0.2,0.3 h 6.2 c 0.3,0 0.6,0.3 0.6,0.6 v 4.2 c 0,0.4 -0.2,0.6 -0.6,0.6 h -6.2 c -0.1,0 -0.2,0.1 -0.2,0.3 V 378 c 0,0.2 0.1,0.3 0.2,0.3 h 10.5 c 0.3,0 0.6,0.3 0.6,0.6 v 4.1 c 0,0.4 -0.2,0.6 -0.6,0.6 h -15.8 c -0.3,0 -0.6,-0.3 -0.6,-0.6 v -36.5 c 0,-0.4 0.2,-0.6 0.6,-0.6 h 15.8 c 0.3,0 0.6,0.3 0.6,0.6 v 4.1 c -0.1,0.3 -0.3,0.6 -0.6,0.6 z"
    id="path32"
    inkscape:connector-curvature="0"
    style="fill:#ffffff" />
    <path
      class="st1"
      d="m 204.9,375.2 v -10.9 c 0,-5.2 3.3,-8.7 8.6,-8.7 5.4,0 8.7,3.6 8.7,8.3 v 0.8 c 0,0.4 -0.2,0.6 -0.6,0.6 l -4.5,0.2 c -0.4,0 -0.6,-0.2 -0.6,-0.6 v -0.6 c 0,-1.8 -1.2,-3.3 -3,-3.3 -1.7,0 -3,1.6 -3,3.8 v 10 c 0,2.3 1.2,3.8 3,3.8 1.8,0 3,-1.6 3,-3.4 v -0.5 c 0,-0.4 0.2,-0.6 0.6,-0.6 l 4.5,0.1 c 0.3,0 0.6,0.3 0.6,0.6 v 1 c 0,4.9 -3.3,8.3 -8.7,8.3 -5.3,-0.1 -8.6,-3.5 -8.6,-8.9 z"
      id="path34"
      inkscape:connector-curvature="0"
      style="fill:#ffffff" />
    <path
      class="st1"
      d="m 225.5,375.3 v -11 c 0,-5.2 3.3,-8.7 8.7,-8.7 5.4,0 8.7,3.6 8.7,8.7 v 11 c 0,5.3 -3.3,8.7 -8.7,8.7 -5.5,0 -8.7,-3.4 -8.7,-8.7 z m 11.7,-0.5 v -10 c 0,-2.3 -1.3,-3.8 -3.1,-3.8 -1.8,0 -3,1.6 -3,3.8 v 10 c 0,2.3 1.2,3.8 3,3.8 1.8,0 3.1,-1.5 3.1,-3.8 z"
      id="path36"
      inkscape:connector-curvature="0"
      style="fill:#ffffff" />
    <path
      class="st1"
      d="M 263.9,364.6 V 383 c 0,0.4 -0.2,0.6 -0.6,0.6 h -4.5 c -0.3,0 -0.6,-0.3 -0.6,-0.6 v -17.9 c 0,-2.6 -1,-4.1 -2.8,-4.1 -1.8,0 -3,1.6 -3,4.3 V 383 c 0,0.4 -0.2,0.6 -0.6,0.6 h -4.5 c -0.3,0 -0.6,-0.3 -0.6,-0.6 v -26.3 c 0,-0.4 0.2,-0.6 0.6,-0.6 h 4.5 c 0.3,0 0.6,0.3 0.6,0.6 v 1.1 c 0,0.2 0.2,0.3 0.4,0 1.3,-1.7 3,-2.2 4.6,-2.2 4.3,0 6.5,3.3 6.5,9 z"
      id="path38"
      inkscape:connector-curvature="0"
      style="fill:#ffffff" />
    <path
      class="st1"
      d="m 267.8,375.3 v -11 c 0,-5.2 3.3,-8.7 8.7,-8.7 5.4,0 8.7,3.6 8.7,8.7 v 11 c 0,5.3 -3.3,8.7 -8.7,8.7 -5.5,0 -8.7,-3.4 -8.7,-8.7 z m 11.7,-0.5 v -10 c 0,-2.3 -1.3,-3.8 -3.1,-3.8 -1.8,0 -3,1.6 -3,3.8 v 10 c 0,2.3 1.2,3.8 3,3.8 1.8,0 3.1,-1.5 3.1,-3.8 z"
      id="path40"
      inkscape:connector-curvature="0"
      style="fill:#ffffff" />
    <path
      class="st1"
      d="M 317.2,364.9 V 383 c 0,0.4 -0.2,0.6 -0.6,0.6 h -4.4 c -0.3,0 -0.6,-0.3 -0.6,-0.6 v -17.7 c 0,-2.8 -1.1,-4.3 -2.7,-4.3 -1.8,0 -2.9,1.6 -2.9,4.3 V 383 c 0,0.4 -0.2,0.6 -0.6,0.6 H 301 c -0.3,0 -0.6,-0.3 -0.6,-0.6 v -17.7 c 0,-2.8 -1.1,-4.3 -2.7,-4.3 -1.8,0 -2.9,1.6 -2.9,4.3 V 383 c 0,0.4 -0.2,0.6 -0.6,0.6 h -4.4 c -0.3,0 -0.6,-0.3 -0.6,-0.6 v -26.3 c 0,-0.4 0.2,-0.6 0.6,-0.6 h 4.4 c 0.3,0 0.6,0.3 0.6,0.6 v 0.9 c 0,0.2 0.1,0.3 0.3,0.1 1.4,-1.6 3.2,-2.1 4.6,-2.1 2.5,0 4.2,1.2 5.3,3.4 0.1,0.2 0.2,0.1 0.4,-0.2 1.4,-2.5 3.7,-3.2 5.4,-3.2 4.3,0 6.4,3.5 6.4,9.3 z"
      id="path42"
      inkscape:connector-curvature="0"
      style="fill:#ffffff" />
    <path
      class="st1"
      d="m 321.2,348.7 c 0,-2.3 1.4,-3.9 3.4,-3.9 2,0 3.4,1.6 3.4,3.9 0,2.3 -1.4,3.9 -3.4,3.9 -2,-0.1 -3.4,-1.6 -3.4,-3.9 z m 0.5,34.2 v -26.3 c 0,-0.4 0.2,-0.6 0.6,-0.6 h 4.5 c 0.3,0 0.6,0.3 0.6,0.6 v 26.3 c 0,0.4 -0.2,0.6 -0.6,0.6 h -4.5 c -0.3,0.1 -0.6,-0.2 -0.6,-0.6 z"
      id="path44"
      inkscape:connector-curvature="0"
      style="fill:#ffffff" />
    <path
      class="st1"
      d="m 343.8,356 h 4.5 c 0.3,0 0.6,0.3 0.6,0.6 v 36.5 c 0,0.4 -0.2,0.6 -0.6,0.6 h -4.5 c -0.3,0 -0.6,-0.3 -0.6,-0.6 V 382 c 0,-0.2 -0.1,-0.3 -0.3,-0.1 -1.3,1.6 -3,2.1 -4.5,2.1 -4.2,0 -6.7,-3.3 -6.8,-8.7 v -11 c 0.1,-5.2 2.5,-8.7 6.8,-8.7 1.5,0 3.2,0.5 4.5,2.1 0.1,0.2 0.3,0.1 0.3,-0.1 v -0.9 c 0,-0.4 0.3,-0.7 0.6,-0.7 z m -0.6,18.7 v -9.8 c 0,-2.4 -1.2,-3.9 -3,-3.9 -1.8,0 -3,1.6 -3,3.9 v 9.8 c 0,2.4 1.2,3.9 3,3.9 1.8,0 3,-1.5 3,-3.9 z"
      id="path46"
      inkscape:connector-curvature="0"
      style="fill:#ffffff" />
    <path
      class="st1"
      d="m 365.3,356 h 4.5 c 0.3,0 0.6,0.3 0.6,0.6 v 26.3 c 0,0.4 -0.2,0.6 -0.6,0.6 h -4.5 c -0.3,0 -0.6,-0.3 -0.6,-0.6 v -1.2 c 0,-0.2 -0.1,-0.3 -0.3,-0.1 -1.1,1.8 -2.7,2.3 -4.5,2.3 -3.6,0 -6.6,-2.3 -6.6,-8 v -19.3 c 0,-0.4 0.2,-0.6 0.6,-0.6 h 4.5 c 0.3,0 0.6,0.3 0.6,0.6 v 17.9 c 0,2.7 1,4.1 2.8,4.1 1.8,0 3,-1.6 3,-4.3 v -17.7 c -0.1,-0.3 0.2,-0.6 0.5,-0.6 z"
      id="path48"
      inkscape:connector-curvature="0"
      style="fill:#ffffff" />
    <path
      class="st1"
      d="m 391.1,372.1 h -10.8 c -0.1,0 -0.2,0.1 -0.2,0.3 v 2.4 c 0,2.3 1.2,3.9 3,3.9 1.6,0 2.6,-1.3 3,-2.9 0.1,-0.4 0.3,-0.6 0.6,-0.5 l 4.4,0.3 c 0.3,0.1 0.6,0.3 0.5,0.7 -0.5,4.8 -3.4,7.7 -8.5,7.7 -5.3,0 -8.6,-3.3 -8.6,-8.7 v -11 c 0,-5.2 3.3,-8.7 8.6,-8.7 5.4,0 8.7,3.6 8.7,8.7 v 7.2 c -0.1,0.4 -0.4,0.6 -0.7,0.6 z m -11,-7.3 v 2.4 c 0,0.2 0.1,0.3 0.2,0.3 h 5.5 c 0.1,0 0.2,-0.1 0.2,-0.3 v -2.4 c 0,-2.3 -1.2,-3.8 -3,-3.8 -1.7,0 -2.9,1.5 -2.9,3.8 z"
      id="path50"
      inkscape:connector-curvature="0"
      style="fill:#ffffff" />
    <path
      class="st1"
      d="m 394.7,376.3 v -0.4 c 0,-0.4 0.2,-0.6 0.6,-0.6 h 4.2 c 0.3,0 0.6,0.2 0.6,0.4 v 0.5 c 0,1.7 1.4,3 3.1,3 1.7,0 2.7,-1.2 2.7,-2.9 0,-2.3 -2.3,-3.1 -4.6,-4.2 -2.6,-1.1 -6.3,-3 -6.3,-8.5 0,-5.1 3.2,-8 8,-8 5.1,0 8.2,3.2 8.2,8.3 0,0.4 -0.2,0.6 -0.6,0.6 h -4.1 c -0.3,0 -0.6,-0.2 -0.6,-0.5 v -0.5 c 0,-1.7 -1.2,-3 -2.8,-3 -1.8,0 -2.8,1.5 -2.8,3 0,2.2 2.1,3 4.3,4 2.9,1.3 6.9,3.1 6.9,8.4 0,4.8 -3.3,7.8 -8.5,7.8 -5.2,0 -8.3,-2.8 -8.3,-7.4 z"
      id="path52"
      inkscape:connector-curvature="0"
      style="fill:#ffffff" />
</g>
</svg>
